<svg width="32" height="31" viewBox="0 0 32 31" fill="none" xmlns="http://www.w3.org/2000/svg">
<path opacity="0.978" fill-rule="evenodd" clip-rule="evenodd" d="M22.2424 0.00379208C23.0507 -0.00631761 23.8588 0.00379208 24.6667 0.0340606C25.9404 0.240916 26.9605 0.856396 27.7273 1.88044C28.4825 3.07193 28.8361 4.37348 28.7879 5.78508C28.7955 7.06411 28.6439 8.32528 28.3333 9.56865C28.1419 10.3135 27.9601 11.0601 27.7879 11.8085C27.5038 12.7091 27.2108 13.6071 26.9091 14.5024C26.9771 14.6587 27.0983 14.7596 27.2727 14.8051C28.7895 15.4548 30.3653 15.8886 32 16.1066C31.825 17.4747 31.623 18.8367 31.3939 20.1929C29.3101 19.9196 27.3101 19.3445 25.3939 18.4676C23.3337 22.6238 21.2428 26.7604 19.1212 30.8777C19.0909 30.908 19.0606 30.9382 19.0303 30.9685C17.7773 31.0189 16.5248 31.0088 15.2727 30.9382C13.1042 25.5368 10.9527 20.1288 8.81818 14.7143C8.03879 12.6008 7.27109 10.482 6.51515 8.3579C6.30849 7.88457 6.08624 7.42043 5.84848 6.96555C4.71982 5.24697 3.13394 4.58106 1.09091 4.96783C0.677273 3.64903 0.313636 2.31722 0 0.972385C3.42218 0.245335 6.30097 1.17355 8.63636 3.75709C9.33442 4.71497 9.9203 5.7441 10.3939 6.84448C11.0456 8.76889 11.7123 10.6859 12.3939 12.5955C14.0706 16.974 15.7474 21.3529 17.4242 25.732C18.9341 22.5864 20.3987 19.4183 21.8182 16.2277C20.1004 14.4913 18.7772 12.4936 17.8485 10.2346C17.5968 9.3995 17.3948 8.55199 17.2424 7.692C17.0073 6.10011 17.2093 4.56653 17.8485 3.09118C18.8214 1.36249 20.2861 0.333356 22.2424 0.00379208ZM22.9697 4.05977C23.9229 3.93301 24.4987 4.33661 24.697 5.27051C24.7608 6.12663 24.7002 6.97415 24.5152 7.81307C24.2838 9.18145 23.9202 10.5133 23.4242 11.8085C22.5876 10.6215 21.9412 9.33007 21.4848 7.93414C21.3918 7.40251 21.3211 6.86772 21.2727 6.32991C21.2933 5.7941 21.4044 5.27954 21.6061 4.78622C21.9686 4.3581 22.4232 4.11595 22.9697 4.05977Z" fill="#FEFFFE"/>
</svg>
